<?xml version="1.0" encoding="UTF-8"?>
<svg xmlns="http://www.w3.org/2000/svg" xmlns:xlink="http://www.w3.org/1999/xlink" width="225px" height="225px" viewBox="0 0 169 169" version="1.1">
<g id="surface1">
<path style=" stroke:none;fill-rule:nonzero;fill:rgb(26.666668%,55.686277%,99.607843%);fill-opacity:1;" d="M 0 0 C 55.769531 0 111.539062 0 169 0 C 169 55.769531 169 111.539062 169 169 C 113.230469 169 57.460938 169 0 169 C 0 113.230469 0 57.460938 0 0 Z M 0 0 "/>
<path style=" stroke:none;fill-rule:nonzero;fill:rgb(99.607843%,99.607843%,99.607843%);fill-opacity:1;" d="M 0 0 C 27.511719 0 55.027344 0 83.375 0 C 82.382812 2.726562 81.390625 5.453125 80.367188 8.261719 C 79.808594 10.058594 79.269531 11.859375 78.761719 13.667969 C 78.5 14.59375 78.238281 15.515625 77.96875 16.464844 C 77.707031 17.398438 77.445312 18.332031 77.175781 19.292969 C 76.902344 20.269531 76.625 21.246094 76.347656 22.222656 C 75.683594 24.578125 75.019531 26.933594 74.359375 29.292969 C 71.136719 30.035156 67.914062 30.78125 64.59375 31.546875 C 64.59375 32.785156 64.59375 34.023438 64.59375 35.300781 C 67.28125 36.230469 69.355469 35.863281 72.105469 35.300781 C 71.589844 39.953125 70.394531 44.332031 69.101562 48.820312 C 66.238281 49.90625 64.476562 49.203125 61.664062 48.167969 C 60.382812 47.707031 60.382812 47.707031 59.074219 47.238281 C 58.1875 46.90625 57.296875 46.578125 56.378906 46.242188 C 54.621094 45.59375 52.863281 44.953125 51.101562 44.320312 C 50.324219 44.03125 49.542969 43.742188 48.742188 43.445312 C 46.636719 42.832031 44.988281 42.683594 42.8125 42.8125 C 42.921875 43.417969 43.03125 44.023438 43.140625 44.644531 C 42.785156 47.554688 42.378906 48.082031 40.558594 50.230469 C 38.007812 53.300781 36.148438 56.449219 34.363281 59.996094 C 34.117188 60.472656 33.871094 60.949219 33.613281 61.441406 C 32.484375 63.738281 31.597656 65.59375 31.332031 68.171875 C 31.019531 70.6875 30.675781 72.222656 29.292969 74.359375 C 25.125 76.511719 20.746094 77.492188 16.195312 78.539062 C 14.363281 78.996094 12.535156 79.464844 10.707031 79.933594 C 9.574219 80.21875 8.433594 80.5 7.296875 80.769531 C 4.613281 81.40625 2.488281 82.128906 0 83.375 C 0 55.859375 0 28.347656 0 0 Z M 0 0 "/>
<path style=" stroke:none;fill-rule:nonzero;fill:rgb(99.607843%,99.607843%,99.607843%);fill-opacity:1;" d="M 168.25 85.625 C 168.496094 85.625 168.746094 85.625 169 85.625 C 169 113.140625 169 140.652344 169 169 C 141.488281 169 113.972656 169 85.625 169 C 86.867188 165.28125 88.105469 161.5625 89.382812 157.734375 C 90.148438 154.148438 90.148438 154.148438 90.894531 150.5625 C 93.027344 141.03125 93.027344 141.03125 96.054688 138.542969 C 99.371094 136.882812 102.882812 136.246094 106.507812 135.585938 C 111.203125 134.484375 115.46875 131.371094 119.117188 128.316406 C 121.429688 126.554688 123.328125 126.410156 126.1875 126.1875 C 126.21875 125.441406 126.25 124.699219 126.28125 123.933594 C 126.628906 121.5 127.367188 120.152344 128.910156 118.253906 C 131.027344 115.613281 132.617188 112.90625 134.167969 109.898438 C 134.402344 109.449219 134.636719 109 134.878906 108.535156 C 136.441406 105.390625 136.949219 102.644531 137.40625 99.195312 C 138.0625 96.78125 138.0625 96.78125 139.707031 94.640625 C 144.632812 92.125 150.1875 91.070312 155.554688 89.878906 C 158.320312 89.25 160.992188 88.453125 163.695312 87.597656 C 164.429688 87.375 165.164062 87.152344 165.921875 86.921875 C 167.46875 86.515625 167.46875 86.515625 168.25 85.625 Z M 168.25 85.625 "/>
<path style=" stroke:none;fill-rule:nonzero;fill:rgb(99.607843%,99.607843%,99.607843%);fill-opacity:1;" d="M 85.625 0 C 113.140625 0 140.652344 0 169 0 C 169 27.511719 169 55.027344 169 83.375 C 165.28125 82.132812 161.5625 80.894531 157.734375 79.617188 C 154.128906 78.816406 154.128906 78.816406 150.523438 78.03125 C 140.976562 75.824219 140.976562 75.824219 138.628906 73.117188 C 137.167969 70.203125 136.777344 67.109375 136.296875 63.910156 C 135.703125 61.21875 134.367188 59 132.945312 56.660156 C 132.558594 56.007812 132.558594 56.007812 132.160156 55.339844 C 130.78125 53.0625 129.296875 50.894531 127.6875 48.773438 C 126.132812 46.492188 125.777344 45.507812 126.1875 42.8125 C 125.441406 42.78125 124.699219 42.75 123.933594 42.71875 C 121.5 42.371094 120.152344 41.632812 118.253906 40.089844 C 113.664062 36.402344 107.925781 32.839844 102.035156 31.933594 C 99.152344 31.40625 97.136719 30.847656 94.640625 29.292969 C 92.078125 25.449219 91.347656 20.589844 90.367188 16.148438 C 90.066406 14.921875 89.761719 13.691406 89.453125 12.464844 C 89.019531 10.738281 88.589844 9.011719 88.195312 7.277344 C 87.574219 4.589844 86.875 2.492188 85.625 0 Z M 85.625 0 "/>
<path style=" stroke:none;fill-rule:nonzero;fill:rgb(99.607843%,99.607843%,99.607843%);fill-opacity:1;" d="M 0 85.625 C 2.726562 86.617188 5.453125 87.609375 8.261719 88.632812 C 10 89.054688 11.75 89.4375 13.511719 89.761719 C 27.585938 92.757812 27.585938 92.757812 30.609375 96.09375 C 32.359375 99.382812 32.910156 102.867188 33.460938 106.519531 C 34.433594 111.214844 37.65625 115.5 40.683594 119.117188 C 42.445312 121.429688 42.589844 123.328125 42.8125 126.1875 C 43.417969 126.078125 44.023438 125.96875 44.644531 125.859375 C 47.554688 126.214844 48.082031 126.621094 50.230469 128.441406 C 53.300781 130.992188 56.449219 132.851562 59.996094 134.636719 C 60.472656 134.882812 60.949219 135.128906 61.441406 135.386719 C 63.714844 136.503906 65.703125 137.382812 68.214844 137.828125 C 70.488281 138.234375 72.304688 138.648438 74.359375 139.707031 C 76.082031 142.375 76.664062 145.167969 77.316406 148.25 C 77.726562 149.886719 78.132812 151.519531 78.539062 153.15625 C 78.722656 153.945312 78.90625 154.734375 79.097656 155.542969 C 79.75 158.289062 80.550781 160.957031 81.402344 163.648438 C 81.625 164.375 81.847656 165.101562 82.078125 165.847656 C 82.582031 167.503906 82.582031 167.503906 83.375 169 C 55.859375 169 28.347656 169 0 169 C 0 141.488281 0 113.972656 0 85.625 Z M 0 85.625 "/>
<path style=" stroke:none;fill-rule:nonzero;fill:rgb(89.803922%,92.156863%,98.823529%);fill-opacity:1;" d="M 84.125 14.269531 C 85.878906 16.023438 86.117188 17.074219 86.765625 19.445312 C 86.976562 20.203125 87.183594 20.964844 87.398438 21.746094 C 87.730469 22.972656 87.730469 22.972656 88.066406 24.222656 C 88.535156 25.929688 89 27.636719 89.464844 29.347656 C 89.699219 30.214844 89.933594 31.078125 90.175781 31.972656 C 90.847656 34.417969 91.546875 36.851562 92.257812 39.285156 C 92.46875 40.023438 92.679688 40.761719 92.898438 41.523438 C 93.300781 42.914062 93.707031 44.300781 94.121094 45.6875 C 94.300781 46.324219 94.480469 46.957031 94.664062 47.609375 C 94.824219 48.152344 94.980469 48.699219 95.144531 49.257812 C 95.753906 53.75 94.328125 57.449219 92.429688 61.449219 C 92.214844 61.90625 92 62.367188 91.777344 62.839844 C 91.09375 64.289062 90.402344 65.734375 89.710938 67.175781 C 89.242188 68.167969 88.777344 69.15625 88.308594 70.144531 C 87.171875 72.554688 86.027344 74.960938 84.875 77.363281 C 81.839844 73.578125 79.992188 69.195312 77.929688 64.832031 C 77.5 63.96875 77.074219 63.109375 76.636719 62.21875 C 74.246094 57.148438 72.859375 53.558594 74.359375 48.070312 C 74.472656 47.582031 74.589844 47.09375 74.707031 46.585938 C 75.082031 45.066406 75.511719 43.566406 75.957031 42.0625 C 76.289062 40.898438 76.625 39.730469 76.960938 38.566406 C 77.140625 37.933594 77.324219 37.300781 77.511719 36.652344 C 78.191406 34.289062 78.851562 31.921875 79.507812 29.550781 C 79.742188 28.699219 79.980469 27.847656 80.222656 26.972656 C 80.691406 25.28125 81.160156 23.589844 81.628906 21.898438 C 81.84375 21.121094 82.058594 20.347656 82.28125 19.550781 C 82.472656 18.859375 82.667969 18.167969 82.863281 17.453125 C 83.375 15.773438 83.375 15.773438 84.125 14.269531 Z M 84.125 14.269531 "/>
<path style=" stroke:none;fill-rule:nonzero;fill:rgb(89.803922%,92.156863%,98.823529%);fill-opacity:1;" d="M 61.375 76.570312 C 62.066406 76.894531 62.066406 76.894531 62.769531 77.222656 C 64.226562 77.90625 65.679688 78.597656 67.128906 79.289062 C 68.121094 79.757812 69.117188 80.222656 70.109375 80.691406 C 72.53125 81.828125 74.949219 82.976562 77.363281 84.125 C 73.578125 87.160156 69.195312 89.007812 64.832031 91.070312 C 63.96875 91.5 63.109375 91.925781 62.21875 92.363281 C 57.089844 94.785156 53.59375 96.144531 48.070312 94.640625 C 47.289062 94.449219 46.507812 94.257812 45.703125 94.058594 C 42.957031 93.355469 40.234375 92.597656 37.507812 91.824219 C 36.539062 91.550781 35.566406 91.28125 34.59375 91.007812 C 27.777344 89.09375 21 87.078125 14.269531 84.875 C 16.164062 82.980469 17.601562 82.742188 20.183594 82.042969 C 21.089844 81.796875 21.996094 81.550781 22.929688 81.292969 C 23.90625 81.03125 24.886719 80.769531 25.867188 80.507812 C 26.859375 80.242188 27.851562 79.972656 28.84375 79.707031 C 30.824219 79.171875 32.804688 78.640625 34.785156 78.109375 C 37.199219 77.460938 39.609375 76.789062 42.015625 76.109375 C 43.265625 75.761719 44.519531 75.414062 45.769531 75.0625 C 46.328125 74.902344 46.886719 74.738281 47.460938 74.574219 C 52.851562 73.105469 56.417969 74.226562 61.375 76.570312 Z M 61.375 76.570312 "/>
<path style=" stroke:none;fill-rule:nonzero;fill:rgb(90.196079%,92.54902%,98.823529%);fill-opacity:1;" d="M 128.488281 76.570312 C 129.261719 76.785156 130.035156 77 130.835938 77.222656 C 133.292969 77.90625 135.75 78.597656 138.203125 79.289062 C 139.878906 79.757812 141.550781 80.222656 143.222656 80.691406 C 147.3125 81.832031 151.394531 82.976562 155.480469 84.125 C 153.210938 85.292969 151.070312 86.09375 148.601562 86.765625 C 147.839844 86.976562 147.082031 87.183594 146.296875 87.398438 C 145.484375 87.621094 144.671875 87.839844 143.835938 88.066406 C 137.003906 89.941406 130.207031 91.886719 123.460938 94.054688 C 122.894531 94.230469 122.328125 94.410156 121.742188 94.589844 C 121.253906 94.746094 120.769531 94.902344 120.269531 95.0625 C 115.867188 95.972656 112.742188 95.023438 108.800781 93.089844 C 108.304688 92.859375 107.8125 92.625 107.304688 92.382812 C 105.738281 91.640625 104.179688 90.886719 102.621094 90.132812 C 101.554688 89.625 100.492188 89.121094 99.425781 88.613281 C 96.824219 87.375 94.230469 86.128906 91.636719 84.875 C 95.429688 81.828125 99.839844 79.992188 104.214844 77.929688 C 105.085938 77.5 105.953125 77.074219 106.84375 76.636719 C 107.695312 76.238281 108.542969 75.839844 109.414062 75.429688 C 110.183594 75.0625 110.949219 74.695312 111.742188 74.316406 C 117.285156 72.703125 123.109375 75.046875 128.488281 76.570312 Z M 128.488281 76.570312 "/>
<path style=" stroke:none;fill-rule:nonzero;fill:rgb(90.196079%,92.54902%,98.823529%);fill-opacity:1;" d="M 84.125 91.636719 C 87.171875 95.429688 89.007812 99.839844 91.070312 104.214844 C 91.5 105.085938 91.925781 105.953125 92.363281 106.84375 C 96.210938 115.023438 96.210938 115.023438 94.640625 120.179688 C 94.476562 120.824219 94.3125 121.472656 94.140625 122.140625 C 93.546875 124.425781 92.902344 126.691406 92.246094 128.957031 C 91.898438 130.175781 91.898438 130.175781 91.542969 131.421875 C 90.828125 133.933594 90.105469 136.445312 89.382812 138.957031 C 88.933594 140.535156 88.480469 142.113281 88.03125 143.691406 C 86.984375 147.371094 85.929688 151.050781 84.875 154.730469 C 83.527344 152.707031 82.957031 151.410156 82.292969 149.132812 C 82.097656 148.457031 81.898438 147.78125 81.695312 147.085938 C 81.488281 146.359375 81.277344 145.632812 81.0625 144.882812 C 80.738281 143.753906 80.738281 143.753906 80.410156 142.605469 C 79.953125 141.015625 79.5 139.425781 79.046875 137.832031 C 78.355469 135.40625 77.648438 132.980469 76.941406 130.558594 C 76.5 129.011719 76.058594 127.464844 75.617188 125.917969 C 75.40625 125.195312 75.191406 124.472656 74.972656 123.730469 C 73.242188 117.515625 73.78125 113.429688 76.570312 107.550781 C 76.894531 106.863281 76.894531 106.863281 77.222656 106.160156 C 77.90625 104.710938 78.597656 103.265625 79.289062 101.824219 C 79.757812 100.832031 80.222656 99.84375 80.691406 98.855469 C 81.828125 96.445312 82.972656 94.039062 84.125 91.636719 Z M 84.125 91.636719 "/>
<path style=" stroke:none;fill-rule:nonzero;fill:rgb(89.803922%,92.156863%,98.823529%);fill-opacity:1;" d="M 78.117188 90.882812 C 76.546875 95.8125 74.777344 100.625 72.765625 105.390625 C 72.507812 106.050781 72.253906 106.710938 71.988281 107.394531 C 70.511719 110.84375 69.355469 112.90625 65.867188 114.496094 C 64.699219 114.910156 63.523438 115.304688 62.34375 115.671875 C 61.316406 116.042969 60.292969 116.414062 59.269531 116.785156 C 58.308594 117.105469 57.34375 117.421875 56.378906 117.738281 C 55.640625 117.984375 55.640625 117.984375 54.882812 118.238281 C 51.277344 119.425781 51.277344 119.425781 49.574219 119.425781 C 49.984375 117.128906 50.488281 114.925781 51.074219 112.667969 C 51.1875 112.199219 51.300781 111.734375 51.417969 111.25 C 52.65625 106.417969 53.820312 102.035156 57.847656 98.863281 C 60.082031 97.742188 62.296875 96.773438 64.648438 95.925781 C 66.152344 95.371094 67.605469 94.742188 69.066406 94.085938 C 76.203125 90.882812 76.203125 90.882812 78.117188 90.882812 Z M 78.117188 90.882812 "/>
<path style=" stroke:none;fill-rule:nonzero;fill:rgb(89.803922%,92.156863%,98.823529%);fill-opacity:1;" d="M 49.574219 49.574219 C 66.816406 52.917969 66.816406 52.917969 70.347656 57.898438 C 71.675781 60.59375 72.667969 63.246094 73.609375 66.097656 C 74.234375 67.582031 74.894531 69.046875 75.558594 70.511719 C 78.117188 76.191406 78.117188 76.191406 78.117188 78.117188 C 73.1875 76.546875 68.375 74.777344 63.609375 72.765625 C 62.949219 72.507812 62.289062 72.253906 61.605469 71.988281 C 58.140625 70.503906 56.09375 69.347656 54.503906 65.839844 C 54.09375 64.679688 53.699219 63.515625 53.328125 62.34375 C 52.960938 61.378906 52.589844 60.421875 52.214844 59.460938 C 51.898438 58.582031 51.585938 57.707031 51.261719 56.804688 C 50.941406 55.914062 50.621094 55.023438 50.289062 54.109375 C 49.574219 51.828125 49.574219 51.828125 49.574219 49.574219 Z M 49.574219 49.574219 "/>
<path style=" stroke:none;fill-rule:nonzero;fill:rgb(89.803922%,92.156863%,98.823529%);fill-opacity:1;" d="M 90.882812 90.882812 C 95.386719 92.300781 99.753906 94.03125 104.121094 95.8125 C 105.289062 96.253906 105.289062 96.253906 106.480469 96.707031 C 110.234375 98.261719 112.851562 99.371094 114.574219 103.1875 C 114.964844 104.335938 115.332031 105.492188 115.671875 106.65625 C 116.035156 107.621094 116.40625 108.582031 116.785156 109.539062 C 117.101562 110.417969 117.414062 111.292969 117.738281 112.195312 C 118.058594 113.085938 118.378906 113.976562 118.710938 114.890625 C 119.425781 117.171875 119.425781 117.171875 119.425781 119.425781 C 117.128906 119.015625 114.925781 118.511719 112.667969 117.925781 C 112.199219 117.8125 111.734375 117.699219 111.25 117.582031 C 106.417969 116.34375 102.035156 115.179688 98.863281 111.152344 C 97.742188 108.917969 96.773438 106.703125 95.925781 104.351562 C 95.371094 102.847656 94.742188 101.394531 94.085938 99.933594 C 90.882812 92.796875 90.882812 92.796875 90.882812 90.882812 Z M 90.882812 90.882812 "/>
<path style=" stroke:none;fill-rule:nonzero;fill:rgb(89.803922%,92.156863%,98.823529%);fill-opacity:1;" d="M 119.425781 49.574219 C 118.941406 51.5 118.429688 53.410156 117.878906 55.316406 C 117.394531 57.046875 116.964844 58.789062 116.582031 60.539062 C 115.480469 64.710938 114.636719 67.5 111.011719 70.03125 C 108.628906 71.222656 106.160156 72.15625 103.652344 73.050781 C 101.246094 73.945312 98.972656 75.078125 96.660156 76.191406 C 92.574219 78.117188 92.574219 78.117188 90.882812 78.117188 C 92.453125 73.1875 94.222656 68.375 96.234375 63.609375 C 96.492188 62.949219 96.746094 62.289062 97.011719 61.605469 C 98.496094 58.140625 99.652344 56.09375 103.160156 54.503906 C 104.320312 54.09375 105.484375 53.699219 106.65625 53.328125 C 107.621094 52.960938 108.578125 52.589844 109.539062 52.214844 C 110.417969 51.898438 111.292969 51.585938 112.195312 51.261719 C 113.085938 50.941406 113.976562 50.621094 114.890625 50.289062 C 117.171875 49.574219 117.171875 49.574219 119.425781 49.574219 Z M 119.425781 49.574219 "/>
<path style=" stroke:none;fill-rule:nonzero;fill:rgb(77.64706%,84.313726%,98.823529%);fill-opacity:1;" d="M 84.125 14.269531 C 85.878906 16.023438 86.117188 17.074219 86.765625 19.445312 C 87.078125 20.585938 87.078125 20.585938 87.398438 21.746094 C 87.621094 22.5625 87.839844 23.378906 88.066406 24.222656 C 88.535156 25.929688 89 27.636719 89.464844 29.347656 C 89.699219 30.214844 89.933594 31.078125 90.175781 31.972656 C 90.847656 34.417969 91.546875 36.851562 92.257812 39.285156 C 92.46875 40.023438 92.679688 40.761719 92.898438 41.523438 C 93.300781 42.914062 93.707031 44.300781 94.121094 45.6875 C 94.300781 46.324219 94.480469 46.957031 94.664062 47.609375 C 94.824219 48.152344 94.980469 48.699219 95.144531 49.257812 C 95.753906 53.75 94.328125 57.449219 92.429688 61.449219 C 92.214844 61.90625 92 62.367188 91.777344 62.839844 C 91.09375 64.289062 90.402344 65.734375 89.710938 67.175781 C 89.242188 68.167969 88.777344 69.15625 88.308594 70.144531 C 87.171875 72.554688 86.027344 74.960938 84.875 77.363281 C 83.171875 75.179688 82.0625 73.214844 81.121094 70.605469 C 81.617188 70.605469 82.113281 70.605469 82.621094 70.605469 C 82.8125 69.980469 83 69.355469 83.199219 68.710938 C 83.878906 66.796875 84.570312 65.121094 85.472656 63.320312 C 85.714844 62.828125 85.953125 62.339844 86.199219 61.832031 C 86.691406 60.832031 87.195312 59.84375 87.71875 58.859375 C 91.109375 51.722656 87.453125 43.96875 85.203125 36.898438 C 84.730469 35.398438 84.261719 33.898438 83.792969 32.398438 C 83.585938 31.746094 83.378906 31.09375 83.167969 30.421875 C 82.621094 28.542969 82.621094 28.542969 82.21875 26.515625 C 81.949219 24.777344 81.949219 24.777344 81.121094 23.285156 C 81.546875 21.734375 82.042969 20.203125 82.574219 18.683594 C 82.859375 17.859375 83.148438 17.039062 83.441406 16.191406 C 83.667969 15.558594 83.890625 14.921875 84.125 14.269531 Z M 84.125 14.269531 "/>
<path style=" stroke:none;fill-rule:nonzero;fill:rgb(78.431374%,84.705883%,98.823529%);fill-opacity:1;" d="M 84.125 91.636719 C 87.171875 95.429688 89.007812 99.839844 91.070312 104.214844 C 91.5 105.085938 91.925781 105.953125 92.363281 106.84375 C 96.210938 115.023438 96.210938 115.023438 94.640625 120.179688 C 94.476562 120.824219 94.3125 121.472656 94.140625 122.140625 C 93.546875 124.425781 92.902344 126.691406 92.246094 128.957031 C 91.898438 130.175781 91.898438 130.175781 91.542969 131.421875 C 90.828125 133.933594 90.105469 136.445312 89.382812 138.957031 C 88.933594 140.535156 88.480469 142.113281 88.03125 143.691406 C 86.984375 147.371094 85.929688 151.050781 84.875 154.730469 C 83.289062 152.351562 82.804688 150.589844 82.152344 147.828125 C 81.957031 147.011719 81.761719 146.195312 81.558594 145.355469 C 81.414062 144.730469 81.269531 144.105469 81.121094 143.460938 C 81.617188 143.460938 82.113281 143.460938 82.621094 143.460938 C 82.714844 142.699219 82.808594 141.933594 82.90625 141.148438 C 83.347656 138.367188 84.003906 135.847656 84.839844 133.164062 C 85.121094 132.226562 85.398438 131.292969 85.683594 130.328125 C 86.121094 128.867188 86.566406 127.40625 87.027344 125.949219 C 88.953125 119.820312 90.164062 115.503906 87.128906 109.664062 C 86.730469 108.757812 86.332031 107.851562 85.921875 106.917969 C 85.53125 106.105469 85.140625 105.289062 84.734375 104.453125 C 82.621094 100.058594 82.621094 100.058594 82.621094 98.394531 C 82.125 98.148438 81.628906 97.898438 81.121094 97.644531 C 82.113281 95.660156 83.101562 93.679688 84.125 91.636719 Z M 84.125 91.636719 "/>
<path style=" stroke:none;fill-rule:nonzero;fill:rgb(77.64706%,84.313726%,98.823529%);fill-opacity:1;" d="M 69.101562 119.425781 C 69.609375 121.097656 70.109375 122.773438 70.605469 124.449219 C 70.882812 125.382812 71.164062 126.316406 71.449219 127.273438 C 72.015625 129.566406 72.25 131.359375 72.105469 133.699219 C 65.375 131.976562 59.613281 129.722656 54.078125 125.4375 C 53.832031 124.941406 53.585938 124.445312 53.328125 123.933594 C 55.390625 123.175781 57.457031 122.425781 59.527344 121.679688 C 60.109375 121.464844 60.691406 121.25 61.292969 121.027344 C 61.859375 120.824219 62.425781 120.621094 63.011719 120.414062 C 63.53125 120.222656 64.050781 120.035156 64.585938 119.839844 C 66.097656 119.425781 66.097656 119.425781 69.101562 119.425781 Z M 69.101562 119.425781 "/>
<path style=" stroke:none;fill-rule:nonzero;fill:rgb(63.137257%,75.294119%,96.862745%);fill-opacity:1;" d="M 123.933594 53.328125 C 127.074219 56.148438 128.800781 58.832031 130.503906 62.671875 C 130.734375 63.152344 130.960938 63.636719 131.195312 64.132812 C 132.578125 67.160156 133.136719 69.492188 133.699219 72.859375 C 128.988281 71.617188 124.277344 70.378906 119.425781 69.101562 C 120.011719 65.015625 120.695312 62.042969 122.101562 58.257812 C 122.445312 57.328125 122.785156 56.402344 123.136719 55.445312 C 123.402344 54.746094 123.664062 54.046875 123.933594 53.328125 Z M 123.933594 53.328125 "/>
<path style=" stroke:none;fill-rule:nonzero;fill:rgb(96.862745%,97.647059%,99.607843%);fill-opacity:1;" d="M 44.316406 53.328125 C 45.9375 55.761719 46.832031 58.046875 47.835938 60.792969 C 48.179688 61.714844 48.523438 62.632812 48.878906 63.582031 C 49.574219 66.097656 49.574219 66.097656 48.820312 69.101562 C 42.128906 70.960938 42.128906 70.960938 35.300781 72.859375 C 37.003906 65.203125 37.003906 65.203125 38.964844 61.402344 C 39.332031 60.671875 39.703125 59.9375 40.085938 59.183594 C 41.328125 57.054688 42.726562 55.214844 44.316406 53.328125 Z M 44.316406 53.328125 "/>
<path style=" stroke:none;fill-rule:nonzero;fill:rgb(77.64706%,83.92157%,98.823529%);fill-opacity:1;" d="M 99.898438 119.425781 C 104.007812 120.339844 107.671875 121.175781 111.585938 122.523438 C 112.363281 122.789062 113.136719 123.054688 113.9375 123.328125 C 114.507812 123.527344 115.082031 123.726562 115.671875 123.933594 C 112.851562 127.074219 110.167969 128.800781 106.328125 130.503906 C 105.847656 130.734375 105.363281 130.960938 104.867188 131.195312 C 101.839844 132.578125 99.507812 133.136719 96.140625 133.699219 C 97.382812 128.988281 98.621094 124.277344 99.898438 119.425781 Z M 99.898438 119.425781 "/>
<path style=" stroke:none;fill-rule:nonzero;fill:rgb(63.137257%,75.294119%,96.862745%);fill-opacity:1;" d="M 132.945312 96.140625 C 134.269531 100.117188 131.675781 103.777344 129.941406 107.410156 C 126.070312 114.601562 126.070312 114.601562 123.933594 115.671875 C 123.15625 113.46875 122.394531 111.261719 121.632812 109.050781 C 121.300781 108.113281 121.300781 108.113281 120.960938 107.15625 C 120.652344 106.25 120.652344 106.25 120.339844 105.328125 C 120.144531 104.773438 119.953125 104.21875 119.753906 103.648438 C 119.425781 102.152344 119.425781 102.152344 120.179688 99.898438 C 121.433594 99.296875 121.433594 99.296875 123.042969 98.855469 C 123.617188 98.695312 124.191406 98.53125 124.78125 98.363281 C 125.6875 98.125 125.6875 98.125 126.609375 97.878906 C 127.214844 97.710938 127.820312 97.542969 128.445312 97.367188 C 129.941406 96.949219 131.445312 96.546875 132.945312 96.140625 Z M 132.945312 96.140625 "/>
<path style=" stroke:none;fill-rule:nonzero;fill:rgb(97.647059%,98.039216%,99.607843%);fill-opacity:1;" d="M 35.300781 96.894531 C 38.59375 97.257812 41.757812 97.875 44.972656 98.675781 C 46.039062 98.941406 46.039062 98.941406 47.125 99.210938 C 47.964844 99.550781 47.964844 99.550781 48.820312 99.898438 C 49.664062 102.421875 49.5 102.914062 48.660156 105.328125 C 48.457031 105.929688 48.25 106.535156 48.039062 107.15625 C 47.816406 107.78125 47.59375 108.40625 47.367188 109.050781 C 47.148438 109.6875 46.929688 110.320312 46.707031 110.976562 C 46.164062 112.542969 45.617188 114.109375 45.066406 115.671875 C 41.910156 112.839844 40.199219 110.140625 38.496094 106.28125 C 38.265625 105.792969 38.039062 105.304688 37.804688 104.800781 C 36.617188 102.1875 35.71875 99.734375 35.300781 96.894531 Z M 35.300781 96.894531 "/>
<path style=" stroke:none;fill-rule:nonzero;fill:rgb(78.039217%,84.313726%,98.823529%);fill-opacity:1;" d="M 96.894531 35.300781 C 103.339844 36.832031 111.875 39.375 115.671875 45.066406 C 113.46875 45.84375 111.261719 46.605469 109.050781 47.367188 C 108.425781 47.589844 107.800781 47.808594 107.15625 48.039062 C 106.25 48.347656 106.25 48.347656 105.328125 48.660156 C 104.773438 48.855469 104.21875 49.046875 103.648438 49.246094 C 102.152344 49.574219 102.152344 49.574219 99.898438 48.820312 C 99.019531 46.554688 99.019531 46.554688 98.253906 43.707031 C 97.996094 42.769531 97.738281 41.835938 97.472656 40.875 C 96.894531 38.308594 96.894531 38.308594 96.894531 35.300781 Z M 96.894531 35.300781 "/>
<path style=" stroke:none;fill-rule:nonzero;fill:rgb(78.039217%,84.313726%,98.823529%);fill-opacity:1;" d="M 72.105469 35.300781 C 71.589844 39.953125 70.394531 44.332031 69.101562 48.820312 C 66.035156 50.117188 63.566406 48.875 60.652344 47.742188 C 60.164062 47.558594 59.675781 47.378906 59.171875 47.1875 C 57.972656 46.738281 56.777344 46.28125 55.582031 45.816406 C 58.320312 43.609375 61.105469 41.488281 63.945312 39.40625 C 65.363281 38.347656 65.363281 38.347656 66.515625 37.089844 C 68.261719 35.421875 69.746094 35.300781 72.105469 35.300781 Z M 72.105469 35.300781 "/>
<path style=" stroke:none;fill-rule:nonzero;fill:rgb(77.64706%,84.313726%,98.823529%);fill-opacity:1;" d="M 106.65625 97.644531 C 109.949219 98.53125 112.652344 99.445312 114.539062 102.410156 C 115.429688 104.570312 116.164062 106.722656 116.84375 108.957031 C 117.101562 109.714844 117.355469 110.46875 117.621094 111.25 C 119.425781 116.6875 119.425781 116.6875 119.425781 119.425781 C 116.082031 118.683594 116.082031 118.683594 112.667969 117.925781 C 112.566406 117.378906 112.46875 116.832031 112.367188 116.273438 C 111.941406 114.289062 111.378906 112.476562 110.691406 110.570312 C 110.457031 109.910156 110.222656 109.25 109.980469 108.570312 C 109.734375 107.894531 109.492188 107.214844 109.238281 106.515625 C 108.75 105.160156 108.265625 103.804688 107.78125 102.449219 C 107.566406 101.851562 107.351562 101.253906 107.128906 100.636719 C 106.65625 99.148438 106.65625 99.148438 106.65625 97.644531 Z M 106.65625 97.644531 "/>
<path style=" stroke:none;fill-rule:nonzero;fill:rgb(78.039217%,84.313726%,98.823529%);fill-opacity:1;" d="M 119.425781 49.574219 C 118.730469 52.34375 117.960938 55.089844 117.171875 57.835938 C 116.925781 58.753906 116.679688 59.671875 116.425781 60.621094 C 114.285156 67.6875 114.285156 67.6875 111.671875 69.6875 C 110 70.421875 108.441406 70.972656 106.65625 71.355469 C 107.15625 69.671875 107.660156 67.988281 108.167969 66.308594 C 108.730469 64.449219 109.277344 62.585938 109.816406 60.722656 C 110.140625 59.636719 110.464844 58.546875 110.789062 57.460938 C 110.941406 56.929688 111.089844 56.398438 111.246094 55.851562 C 112.410156 51.996094 112.410156 51.996094 114.921875 50.324219 C 117.171875 49.574219 117.171875 49.574219 119.425781 49.574219 Z M 119.425781 49.574219 "/>
<path style=" stroke:none;fill-rule:nonzero;fill:rgb(77.64706%,84.313726%,98.823529%);fill-opacity:1;" d="M 45.816406 57.085938 C 47.113281 59.027344 47.835938 60.5 48.585938 62.671875 C 48.792969 63.242188 48.996094 63.816406 49.207031 64.40625 C 49.574219 66.097656 49.574219 66.097656 48.820312 69.101562 C 46.34375 69.597656 43.863281 70.09375 41.3125 70.605469 C 42.648438 66.015625 44.085938 61.539062 45.816406 57.085938 Z M 45.816406 57.085938 "/>
<path style=" stroke:none;fill-rule:nonzero;fill:rgb(76.47059%,83.529413%,98.823529%);fill-opacity:1;" d="M 122.429688 58.585938 C 124.195312 60.761719 125.3125 62.832031 126.328125 65.441406 C 126.585938 66.09375 126.84375 66.746094 127.109375 67.417969 C 127.6875 69.101562 127.6875 69.101562 127.6875 70.605469 C 124.921875 70.152344 122.171875 69.667969 119.425781 69.101562 C 119.832031 65.136719 120.757812 62.148438 122.429688 58.585938 Z M 122.429688 58.585938 "/>
<path style=" stroke:none;fill-rule:nonzero;fill:rgb(77.64706%,84.313726%,98.823529%);fill-opacity:1;" d="M 127.6875 98.394531 C 126.515625 102.613281 125.3125 106.558594 123.183594 110.414062 C 121.332031 108.5625 121.101562 107.203125 120.460938 104.6875 C 120.265625 103.933594 120.066406 103.179688 119.867188 102.402344 C 119.722656 101.824219 119.578125 101.246094 119.425781 100.648438 C 124.308594 98.394531 124.308594 98.394531 127.6875 98.394531 Z M 127.6875 98.394531 "/>
<path style=" stroke:none;fill-rule:nonzero;fill:rgb(78.431374%,84.705883%,98.823529%);fill-opacity:1;" d="M 41.3125 98.394531 C 44.289062 98.8125 46.804688 99.488281 49.574219 100.648438 C 49.234375 101.964844 48.886719 103.277344 48.539062 104.59375 C 48.347656 105.324219 48.15625 106.054688 47.960938 106.808594 C 47.398438 108.65625 46.742188 110.230469 45.816406 111.914062 C 45.0625 109.945312 44.3125 107.972656 43.5625 106 C 43.242188 105.160156 43.242188 105.160156 42.914062 104.300781 C 41.3125 100.066406 41.3125 100.066406 41.3125 98.394531 Z M 41.3125 98.394531 "/>
<path style=" stroke:none;fill-rule:nonzero;fill:rgb(94.117647%,96.078432%,99.607843%);fill-opacity:1;" d="M 53.328125 123.933594 C 56.890625 123.539062 58.480469 124.648438 61.261719 126.796875 C 61.960938 127.328125 62.660156 127.859375 63.378906 128.40625 C 64.351562 129.167969 64.351562 129.167969 65.347656 129.941406 C 66.347656 130.695312 67.347656 131.445312 68.351562 132.195312 C 65.347656 131.742188 63.074219 130.792969 60.417969 129.332031 C 59.71875 128.957031 59.019531 128.578125 58.300781 128.191406 C 56.351562 126.949219 54.890625 125.628906 53.328125 123.933594 Z M 53.328125 123.933594 "/>
<path style=" stroke:none;fill-rule:nonzero;fill:rgb(27.450982%,56.078434%,99.607843%);fill-opacity:1;" d="M 54.832031 36.054688 C 56.089844 36.269531 57.34375 36.515625 58.585938 36.804688 C 58.875 38.046875 59.121094 39.300781 59.335938 40.558594 C 58.585938 41.3125 58.585938 41.3125 56.707031 41.40625 C 54.832031 41.3125 54.832031 41.3125 54.078125 40.558594 C 53.984375 38.683594 53.984375 38.683594 54.078125 36.804688 C 54.328125 36.554688 54.574219 36.308594 54.832031 36.054688 Z M 54.832031 36.054688 "/>
</g>
</svg>
