<?xml version="1.0" encoding="UTF-8"?>
<svg xmlns="http://www.w3.org/2000/svg" version="1.1" width="618" height="700" style="background: transparent;">

<path d="M0 0 C9.96486402 6.5189305 15.62898085 15.06790222 21.359375 25.33203125 C22.34487316 27.06871332 23.33038575 28.80538739 24.31677246 30.54156494 C25.33243926 32.33182325 26.34421523 34.12423795 27.35546875 35.91699219 C30.4832628 41.45342978 33.6749506 46.95304649 36.859375 52.45703125 C38.10838353 54.62091449 39.35708059 56.78497754 40.60546875 58.94921875 C41.53335205 60.55748535 41.53335205 60.55748535 42.47998047 62.19824219 C44.36917666 65.47402691 46.25701609 68.75059018 48.14453125 72.02734375 C54.1668485 82.47909361 60.20611664 92.91999827 66.296875 103.33203125 C72.13069827 113.30762009 77.87639288 123.33203156 83.6003418 133.37084961 C87.41409611 140.0586524 91.24392463 146.73646128 95.109375 153.39453125 C98.80185478 159.75497984 102.46552919 166.13109516 106.109375 172.51953125 C116.07854752 189.99084014 126.1481219 207.40324305 136.30029297 224.76879883 C140.52053279 231.99642187 144.68332341 239.25519611 148.82324219 246.52905273 C152.60158649 253.1573874 156.44150957 259.74825337 160.296875 266.33203125 C165.43677203 275.11268867 170.47820678 283.94343715 175.46459961 292.81201172 C179.93587339 300.74786306 184.52061645 308.61400485 189.12670898 316.47216797 C193.12471937 323.30577651 197.04427517 330.1794822 200.921875 337.08203125 C205.62493645 345.44831337 210.44584905 353.73509778 215.34838867 361.98583984 C221.46547664 372.29205133 227.43385471 382.68289207 233.40820312 393.07226562 C235.4211272 396.56415493 237.4437226 400.05028109 239.46875 403.53515625 C240.14804706 404.70599793 240.8272473 405.87689579 241.50634766 407.04785156 C242.78500194 409.25164426 244.06578118 411.45420603 245.34912109 413.65527344 C253.36784148 427.49592585 260.05415513 439.35060062 256.671875 455.80078125 C254.67447401 462.92484479 251.8853968 468.62770474 247.359375 474.45703125 C246.59625 475.50890625 245.833125 476.56078125 245.046875 477.64453125 C236.86009803 486.21208854 227.13942374 490.20521395 215.37998462 490.58583242 C213.89437343 490.59266969 212.40873124 490.5941533 210.92310715 490.59125233 C210.09608781 490.59360456 209.26906848 490.59595679 208.41698796 490.5983803 C205.64571547 490.60503735 202.87449023 490.60461307 200.10321045 490.60420227 C198.09623018 490.60750292 196.08925058 490.61122891 194.08227181 490.61534375 C188.56675657 490.62534849 183.0512522 490.62907807 177.53572917 490.63173306 C171.58738796 490.63564048 165.63905533 490.64521833 159.6907196 490.65394592 C146.00655548 490.6727618 132.32238983 490.68296306 118.63821633 490.6914066 C111.87407767 490.69561617 105.1099399 490.70083768 98.34580198 490.70609113 C75.18508458 490.72397714 52.02436692 490.73897341 28.86364365 490.74641132 C27.41039753 490.74688608 25.95715142 490.74736197 24.50390531 490.74783899 C23.78324088 490.74807536 23.06257644 490.74831174 22.32007369 490.74855528 C18.66894886 490.74975645 15.01782404 490.75097191 11.36669922 490.75219727 C10.27984446 490.75255749 10.27984446 490.75255749 9.17103304 490.75292499 C-14.32570339 490.76081941 -37.82238938 490.78425632 -61.31910378 490.81675321 C-86.16983592 490.85105995 -111.02053853 490.87076312 -135.87129474 490.87405556 C-138.59983239 490.8744731 -141.32837002 490.87495266 -144.05690765 490.87547874 C-145.06464835 490.87566353 -145.06464835 490.87566353 -146.09274744 490.87585205 C-156.89766731 490.87818273 -167.70252848 490.89383491 -178.50742744 490.91432059 C-189.36943468 490.93458775 -200.23136814 490.93971848 -211.09339055 490.93054996 C-216.97624815 490.92600041 -222.85891533 490.92792993 -228.7417469 490.9473114 C-234.12934993 490.96490811 -239.51662313 490.9639735 -244.90422949 490.94841411 C-246.85104423 490.9460328 -248.79788161 490.95038865 -250.74466172 490.96224276 C-265.90988468 491.04885011 -278.40314853 489.31646153 -289.8359375 478.3515625 C-299.59411357 467.89122985 -302.88122434 456.37845438 -303.13671875 442.20703125 C-301.82985165 432.32835077 -296.91904941 423.84902877 -292.015625 415.33203125 C-291.39026855 414.23093018 -290.76491211 413.1298291 -290.12060547 411.99536133 C-286.33987869 405.35749225 -282.50276479 398.75333251 -278.60205078 392.18530273 C-274.61884646 385.46713493 -270.75652275 378.68057161 -266.890625 371.89453125 C-261.26793739 362.02773949 -255.59248744 352.19434025 -249.8581543 342.3918457 C-245.61513954 335.13603229 -241.40095774 327.86407478 -237.203125 320.58203125 C-236.58115234 319.50308594 -235.95917969 318.42414063 -235.31835938 317.3125 C-233.42533374 314.02760133 -231.53286902 310.74238022 -229.640625 307.45703125 C-227.12053411 303.08160296 -224.59982653 298.7065315 -222.078125 294.33203125 C-221.45832764 293.25671143 -220.83853027 292.1813916 -220.19995117 291.07348633 C-215.42123255 282.79083207 -210.59779758 274.53487355 -205.76708984 266.2824707 C-201.84476146 259.56519306 -198.00712859 252.80437509 -194.203125 246.01953125 C-188.92926441 236.61639157 -183.44093884 227.35475782 -177.84008789 218.14282227 C-174.48083746 212.60182371 -171.26782908 207.01460134 -168.19311523 201.31103516 C-165.258947 195.9170382 -162.19191107 190.59785107 -159.140625 185.26953125 C-158.79535767 184.66575653 -158.45009033 184.06198181 -158.09436035 183.43991089 C-152.66421291 173.94523621 -147.17528134 164.48604775 -141.65039062 155.04614258 C-137.94183944 148.70471034 -134.27496461 142.34125796 -130.640625 135.95703125 C-126.43805863 128.57463461 -122.18165714 121.22584625 -117.890625 113.89453125 C-112.75198806 105.11317167 -107.67793357 96.29672754 -102.640625 87.45703125 C-94.24163992 72.72268201 -85.73889739 58.05013173 -77.08984375 43.4609375 C-76.51065186 42.48366699 -75.93145996 41.50639648 -75.3347168 40.49951172 C-74.25096647 38.67311364 -73.16536824 36.84781001 -72.07739258 35.02392578 C-68.93882445 29.74033722 -65.95181246 24.39821572 -63.07177734 18.96899414 C-56.67256101 7.73707042 -47.69360487 -0.48109399 -35.44140625 -4.625 C-23.27887349 -7.56250791 -10.80423726 -6.3131268 0 0 Z " fill="#19234A" transform="translate(324.640625,34.54296875)"/>
<path d="M0 0 C0.66743506 -0.0199047 1.33487013 -0.0398094 2.0225305 -0.06031728 C4.27600834 -0.12557211 6.52960873 -0.18306497 8.78330994 -0.24005127 C10.39294611 -0.28394177 12.00258047 -0.32789881 13.61221313 -0.37191772 C28.36248478 -0.76215731 43.1155662 -0.99333232 57.86968327 -1.17911911 C67.7865547 -1.30704256 77.69729905 -1.48537694 87.61045837 -1.78985596 C96.26081455 -2.05548293 104.90683918 -2.2243064 113.56119341 -2.27911878 C118.13993973 -2.31130829 122.70678247 -2.38939676 127.28177071 -2.58333588 C154.34632595 -3.68461306 154.34632595 -3.68461306 161.28017187 1.49270821 C167.63984788 7.60369843 171.07149309 15.7997462 174.26080132 23.871315 C176.46868683 29.1881657 179.38478007 34.04378557 182.31040955 38.98944092 C183.36936342 40.86594594 184.42457095 42.74457467 185.47447205 44.62615967 C189.38115174 51.56322074 193.41238358 58.42637945 197.44004822 65.29364014 C202.10798453 73.26919859 206.6682371 81.30203748 211.16001892 89.37811279 C214.29405978 94.9766681 217.60950442 100.41448544 221.10484314 105.79534912 C223.16889353 109.06868947 224.98587747 112.44339251 226.7908783 115.86444092 C228.40045234 118.78490516 230.07639772 121.63509312 231.7986908 124.48944092 C232.63170715 125.88960449 232.63170715 125.88960449 233.48155212 127.3180542 C234.60631797 129.20528848 235.74525963 131.08415488 236.89903259 132.95379639 C237.41634949 133.82923096 237.93366638 134.70466553 238.46665955 135.60662842 C238.94167908 136.39021729 239.41669861 137.17380615 239.90611267 137.98114014 C240.68540955 140.30194092 240.68540955 140.30194092 239.98765564 142.79437256 C238.70941943 145.25570816 237.43278809 147.7035792 236.06822205 150.11834717 C235.54945496 151.037771 235.03068787 151.95719482 234.49620056 152.90447998 C233.93988953 153.88126709 233.38357849 154.8580542 232.81040955 155.86444092 C232.2354071 156.87861084 231.66040466 157.89278076 231.06797791 158.93768311 C226.72886832 166.55590367 222.25288112 174.08449986 217.7151947 181.58563232 C214.79736634 186.41752495 211.99722255 191.28311859 209.3377533 196.26287842 C196.30146765 220.23978203 182.53263163 244.00749665 168.3633604 267.33030415 C166.62774542 270.26442674 166.62774542 270.26442674 165.39790821 273.40743542 C163.81484857 276.90060735 162.3117133 279.49359697 159.68540955 282.30194092 C154.4376185 284.1291939 149.29308488 283.99795695 143.81114197 283.934021 C142.19080633 283.9584894 140.57053987 283.9879746 138.95037842 284.02207947 C134.56094732 284.09800019 130.17466804 284.09753362 125.7847383 284.0785048 C122.11425705 284.0690972 118.44439316 284.09597185 114.77402288 284.12239856 C106.11011642 284.18373456 97.44777928 284.18199764 88.78379822 284.14105225 C79.86081509 284.09998732 70.94306873 284.16499864 62.02088279 284.2825554 C54.34725752 284.37989231 46.67528355 284.41096598 39.0010727 284.38948935 C34.42310944 284.37733578 29.84869523 284.38980763 25.27127647 284.46613503 C-2.48478687 284.88816211 -2.48478687 284.88816211 -8.7917099 280.62917137 C-12.44624768 276.71299202 -14.28146862 272.45453943 -15.69320869 267.34067535 C-16.59173743 264.39263023 -18.1374192 261.95847844 -19.79115295 259.37615967 C-26.37196422 248.12641872 -32.88087177 236.83755895 -39.33345032 225.51394653 C-43.94851122 217.41650684 -48.60499859 209.34488845 -53.31459045 201.30194092 C-59.12234319 191.38275514 -64.850618 181.41966271 -70.52723694 171.42498779 C-73.57187572 166.06896964 -76.63754238 160.73004843 -79.80677795 155.44647217 C-80.32989563 154.56837891 -80.85301331 153.69028564 -81.39198303 152.7855835 C-82.35272761 151.1788673 -83.32330686 149.57797367 -84.30555725 147.98431396 C-87.37932866 142.82491764 -87.37932866 142.82491764 -87.07460022 140.36322021 C-86.20777561 138.01224041 -85.13631874 135.94010927 -83.90052795 133.75897217 C-83.39400696 132.86210693 -82.88748596 131.9652417 -82.36561584 131.04119873 C-81.81252747 130.07536865 -81.25943909 129.10953857 -80.68959045 128.11444092 C-80.11781067 127.1086499 -79.54603088 126.10285889 -78.95692444 125.06658936 C-73.94323715 116.29551027 -68.76526684 107.62521976 -63.51722717 98.99261475 C-60.12990471 93.4059779 -56.88649243 87.77267914 -53.78651428 82.02166748 C-51.29326607 77.41480314 -48.70781968 72.86020418 -46.12709045 68.30194092 C-45.56103088 67.30211182 -44.99497131 66.30228271 -44.41175842 65.27215576 C-36.01100637 50.45602704 -27.44698858 35.75571932 -18.61585999 21.19110107 C-15.0769819 15.33282958 -11.69233076 9.42380031 -8.47206116 3.38397217 C-6.2715191 -0.57431146 -4.46579941 0.1268178 0 0 Z " fill="#F1F1F3" transform="translate(225.31459045410156,204.69805908203125)"/>
<path d="M0 0 C0.99773437 0.35191406 1.99546875 0.70382812 3.0234375 1.06640625 C19.88397243 7.50059023 35.42522838 20.80613093 43.08203125 37.30078125 C50.30384032 53.90610247 52.4349315 74.70290412 46 92 C45.63648438 93.010625 45.27296875 94.02125 44.8984375 95.0625 C38.14277874 112.49645808 24.89851114 127.0725539 8.21484375 135.61328125 C-8.67011376 142.89658613 -28.3912076 145.42454123 -46 139 C-54.63681649 135.3572465 -62.82709416 131.08610193 -70 125 C-70.79148438 124.40703125 -71.58296875 123.8140625 -72.3984375 123.203125 C-75.31253689 120.73532912 -77.63456873 118.02200521 -79.9375 115 C-80.3713501 114.4325708 -80.8052002 113.8651416 -81.25219727 113.28051758 C-85.27293482 107.87683209 -88.31661624 102.17802307 -91 96 C-91.31582031 95.28199219 -91.63164062 94.56398438 -91.95703125 93.82421875 C-98.98136825 76.55749874 -97.10359254 56.83957723 -90.375 39.8125 C-82.65552725 22.92496209 -68.4902134 8.39564391 -51.1640625 1.359375 C-35.41728677 -4.38473187 -15.95601711 -6.00158348 0 0 Z " fill="#57BCCE" transform="translate(325,274)"/>
<path d="M0 0 C14.85 0 29.7 0 45 0 C47.083125 3.733125 49.16625 7.46625 51.3125 11.3125 C56.95361698 21.39728076 62.66667142 31.43501439 68.49169922 41.41455078 C70.23842661 44.40869825 71.98052326 47.40552083 73.72265625 50.40234375 C75.00244426 52.60165556 76.28239051 54.8008753 77.5625 57 C78.1709375 58.04615479 78.779375 59.09230957 79.40625 60.17016602 C79.97472656 61.14526123 80.54320312 62.12035645 81.12890625 63.125 C81.63494385 63.99382813 82.14098145 64.86265625 82.66235352 65.7578125 C83.72366136 67.53679613 84.85093254 69.27639881 86 71 C88.41344667 71.66743877 88.41344667 71.66743877 91 71 C95.31261953 66.48920758 98.05961421 60.79335679 101.0625 55.375 C102.23098945 53.28732288 103.4002713 51.20008909 104.5703125 49.11328125 C105.44091309 47.55794678 105.44091309 47.55794678 106.32910156 45.97119141 C107.80795966 43.34148611 109.29930351 40.72005444 110.8046875 38.10546875 C111.45606689 36.97032837 111.45606689 36.97032837 112.12060547 35.81225586 C113.00474889 34.3018032 113.91049614 32.80380758 114.83642578 31.31860352 C117.60586896 26.80665922 119.57216834 22.51494693 121.25 17.484375 C123.93868784 10.37874156 126.34912214 4.15444774 133 0 C146.86333349 -3.75063498 162.9085111 -1.40608435 177 0 C176.17797165 3.62962514 174.79781646 6.36576232 172.9296875 9.6015625 C172.28805664 10.71853516 171.64642578 11.83550781 170.98535156 12.98632812 C170.28203462 14.19929621 169.57858058 15.41218481 168.875 16.625 C168.15030518 17.8819246 167.42602712 19.13908957 166.70214844 20.39648438 C165.20799946 22.99011546 163.71103913 25.58209366 162.21191406 28.17285156 C160.14068001 31.7536788 158.08082435 35.34088562 156.0234375 38.9296875 C149.76993101 49.82581517 143.44745685 60.67119337 136.93579102 71.4152832 C134.39724339 75.61652061 131.96971581 79.8392783 129.6875 84.1875 C123.48463599 95.70968053 114.69128062 104.88031728 102 109 C89.73189299 111.51739542 75.99707555 111.07902239 65.1875 104.25 C56.91751692 98.50558062 51.87020826 91.10540261 46.875 82.5 C46.22539307 81.39922119 45.57578613 80.29844238 44.90649414 79.16430664 C40.12647022 71.0302886 35.46202588 62.8308431 30.84741211 54.60205078 C26.94856524 47.65050752 22.96519158 40.75262449 18.9375 33.875 C14.30250181 25.95501567 9.68900185 18.02365312 5.125 10.0625 C4.60671631 9.16192871 4.08843262 8.26135742 3.55444336 7.33349609 C3.08530518 6.51316895 2.61616699 5.6928418 2.1328125 4.84765625 C1.71918457 4.12586182 1.30555664 3.40406738 0.87939453 2.66040039 C0 1 0 1 0 0 Z " fill="#19234A" transform="translate(213,553)"/>
<path d="M0 0 C0.91422729 -0.00137466 1.82845459 -0.00274933 2.77038574 -0.00416565 C4.26363373 0.00122726 4.26363373 0.00122726 5.78704834 0.00672913 C7.36800293 0.00651009 7.36800293 0.00651009 8.980896 0.00628662 C12.46545467 0.00698342 15.94995993 0.01476499 19.43450928 0.02259827 C21.85017874 0.02446327 24.26584858 0.02588679 26.68151855 0.02688599 C33.04043624 0.03070466 39.39933109 0.04052943 45.75823975 0.05158997 C52.24668061 0.06181803 58.73512517 0.0663866 65.22357178 0.07142639 C77.95535235 0.08215225 90.6871171 0.09902877 103.41888428 0.12025452 C102.88303207 1.05705551 102.34717987 1.99385651 101.79508972 2.95904541 C101.07780013 4.21354131 100.3605206 5.46804296 99.64324951 6.72254944 C99.29176598 7.33696648 98.94028244 7.95138351 98.57814789 8.58441925 C94.59616583 15.54991066 90.66429853 22.54359821 86.73724365 29.54017639 C85.91643311 30.99713928 85.91643311 30.99713928 85.07904053 32.48353577 C84.59056641 33.35276672 84.10209229 34.22199768 83.59881592 35.11756897 C82.41888428 37.12025452 82.41888428 37.12025452 81.41888428 38.12025452 C78.96569834 38.23459134 76.53949852 38.28507566 74.08514404 38.2938385 C73.31767853 38.30052551 72.55021301 38.30721252 71.75949097 38.31410217 C70.08761263 38.32818451 68.41571469 38.34006833 66.74380684 38.35004997 C64.10091672 38.36640628 61.45817201 38.389641 58.81535339 38.41494751 C51.29939975 38.48587629 43.78338669 38.54591144 36.26727295 38.59706116 C31.67544138 38.62879339 27.08377611 38.67005438 22.49207878 38.71725655 C20.73816854 38.73331206 18.98421994 38.74561713 17.23025703 38.75416374 C14.78067192 38.76627209 12.33148014 38.79040219 9.88201904 38.817276 C8.78709892 38.81815971 8.78709892 38.81815971 7.6700592 38.81906128 C3.59392348 38.7611326 3.59392348 38.7611326 0.41888428 41.12025452 C-0.0244823 45.56854525 0.61332373 48.18619084 2.91888428 51.97181702 C3.74344116 53.35191956 3.74344116 53.35191956 4.58465576 54.75990295 C5.18995117 55.74506897 5.79524658 56.73023499 6.41888428 57.74525452 C7.70297155 59.88756425 8.98545708 62.03083467 10.26654053 64.17494202 C10.94345947 65.30126038 11.62037842 66.42757874 12.31781006 67.58802795 C15.92689136 73.62625405 19.38156053 79.75419286 22.85638428 85.87025452 C24.14611146 88.13624242 25.43645457 90.4018799 26.72747803 92.66712952 C27.63602539 94.27491272 27.63602539 94.27491272 28.56292725 95.91517639 C29.82907062 98.10169708 31.13760337 100.26408107 32.48187256 102.40345764 C33.13268799 103.44953186 33.78350342 104.49560608 34.45404053 105.57337952 C35.04708984 106.49795959 35.64013916 107.42253967 36.25115967 108.37513733 C37.72720304 111.84505823 37.46245695 113.52488005 36.41888428 117.12025452 C35.11541748 119.84584045 35.11541748 119.84584045 33.46966553 122.60462952 C32.86831787 123.62298889 32.26697021 124.64134827 31.6473999 125.69056702 C31.01511475 126.73986389 30.38282959 127.78916077 29.73138428 128.87025452 C29.11843506 129.90408264 28.50548584 130.93791077 27.8739624 132.00306702 C26.06563746 135.0482632 24.24433508 138.08529952 22.41888428 141.12025452 C21.26647306 143.04208906 20.11412388 144.96396081 18.96185303 146.88587952 C18.11434163 148.29742483 17.26674476 149.70891886 16.41888428 151.12025452 C14.11205255 148.98230689 12.56353825 146.88677603 11.02825928 144.14759827 C10.57386475 143.3438678 10.11947021 142.54013733 9.65130615 141.71205139 C9.16210693 140.83613342 8.67290771 139.96021545 8.16888428 139.05775452 C7.09142036 137.14982895 6.01326329 135.2422947 4.93450928 133.33509827 C4.36409912 132.32431213 3.79368896 131.313526 3.20599365 130.27210999 C0.14268918 124.86947874 -2.97120889 119.49614984 -6.08111572 114.12025452 C-11.25576257 105.16801653 -16.39276915 96.19549513 -21.49713135 87.20301819 C-24.25238335 82.371406 -27.10680528 77.63249367 -30.08111572 72.93275452 C-33.25472712 67.84970887 -35.65096226 62.7864971 -37.58111572 57.12025452 C-37.93560791 56.18052795 -38.2901001 55.24080139 -38.65533447 54.27259827 C-41.87522764 43.30865824 -39.57381518 32.12988984 -34.58111572 22.12025452 C-28.04089729 11.74121222 -18.57153458 4.03862565 -6.73974991 0.58236027 C-4.42748601 0.08736651 -2.36376422 -0.00274856 0 0 Z " fill="#19234A" transform="translate(61.58111572265625,166.87974548339844)"/>
<path d="M0 0 C13.61337609 -0.09292047 27.22667599 -0.16387689 40.84030533 -0.20724869 C47.16253153 -0.22807114 53.48453981 -0.25629128 59.80664062 -0.30175781 C65.91450882 -0.34540584 72.02216816 -0.36917724 78.13018036 -0.37950897 C80.45364415 -0.38686636 82.77709727 -0.40123317 85.1004715 -0.42292023 C101.26861065 -0.56775618 113.72159425 -0.19455336 127 10 C128.25103516 10.92232422 128.25103516 10.92232422 129.52734375 11.86328125 C136.11645117 17.55718609 139.76191837 25.73631397 142 34 C142.33 34.99 142.66 35.98 143 37 C144.68050162 54.35600034 136.37998557 67.57605368 128 82 C127.44425293 82.95938477 126.88850586 83.91876953 126.31591797 84.90722656 C123.38455428 89.96061562 120.43752943 95.00457987 117.48046875 100.04296875 C114.23217183 105.58597528 111.04640809 111.16275439 107.875 116.75 C103.31512341 124.77666879 98.62000419 132.71404323 93.83154297 140.60644531 C93.35861816 141.38729492 92.88569336 142.16814453 92.3984375 142.97265625 C91.98255371 143.65593994 91.56666992 144.33922363 91.13818359 145.04321289 C90.00440091 146.99243387 88.98584869 148.97252658 88 151 C83.94784555 147.4856601 81.79360939 143.34914168 79.3125 138.6875 C76.74948003 133.9314054 74.18489389 129.2124977 71.27734375 124.65625 C70.85219482 123.98505127 70.4270459 123.31385254 69.98901367 122.62231445 C69.17977809 121.3586313 68.35622567 120.10397182 67.5168457 118.86010742 C66.421875 117.13671875 66.421875 117.13671875 65 114 C66.14458041 110.29543604 68.0137416 107.01262267 69.90625 103.640625 C70.48004395 102.61614258 71.05383789 101.59166016 71.64501953 100.53613281 C72.25716309 99.45170898 72.86930664 98.36728516 73.5 97.25 C74.13147949 96.1269043 74.76295898 95.00380859 75.41357422 93.84667969 C78.92797625 87.61412826 82.48142731 81.40789518 86.125 75.25 C86.50897949 74.59966797 86.89295898 73.94933594 87.28857422 73.27929688 C89.05275277 70.29252872 90.81794101 67.30641378 92.58984375 64.32421875 C94.27909505 61.47238804 95.95310466 58.61203312 97.625 55.75 C98.15883301 54.85571289 98.69266602 53.96142578 99.24267578 53.04003906 C99.7323584 52.19666992 100.22204102 51.35330078 100.7265625 50.484375 C101.16564941 49.73897461 101.60473633 48.99357422 102.05712891 48.22558594 C103.16435596 45.61204844 103.32030023 43.81184957 103 41 C100.13376392 38.13376392 97.26974376 38.69235041 93.42919922 38.68115234 C92.25833267 38.66608391 92.25833267 38.66608391 91.06381226 38.65071106 C88.477445 38.61976007 85.8911818 38.60281108 83.3046875 38.5859375 C81.513917 38.56723541 79.7231554 38.54766273 77.93240356 38.5272522 C73.21422563 38.47582356 68.49601908 38.43625544 63.77770996 38.39910889 C58.96501528 38.35913634 54.15244069 38.3080133 49.33984375 38.2578125 C39.89331339 38.16092623 30.4467154 38.07656226 21 38 C20.60879471 37.27808472 20.21758942 36.55616943 19.81452942 35.81237793 C17.07011529 30.76179346 14.31096912 25.73070797 11.38671875 20.78125 C10.77892578 19.74742187 10.17113281 18.71359375 9.54492188 17.6484375 C8.2879218 15.51774967 7.03008528 13.38755511 5.77148438 11.2578125 C4.86946289 9.72253906 4.86946289 9.72253906 3.94921875 8.15625 C3.40612061 7.23650391 2.86302246 6.31675781 2.3034668 5.36914062 C1 3 1 3 0 0 Z " fill="#19234A" transform="translate(439,167)"/>
<path d="M0 0 C7.24400012 4.34367676 11.07329363 11.14553403 15.390625 18.18359375 C15.9470166 19.08577637 16.5034082 19.98795898 17.07666016 20.91748047 C22.48900132 29.7335663 27.75764535 38.63442022 32.99511719 47.55517578 C36.65238696 53.77067319 40.40904326 59.88716971 44.37744141 65.90966797 C45.640625 68.05859375 45.640625 68.05859375 45.640625 70.05859375 C46.61035751 70.04749069 47.58009003 70.03638763 48.57920837 70.02494812 C57.74445781 69.92332918 66.90959207 69.8485123 76.07527828 69.79953289 C80.78683498 69.77350481 85.49793474 69.73823185 90.20922852 69.68139648 C94.7609814 69.6268331 99.31229643 69.59712221 103.86435127 69.58420753 C105.59582977 69.5750111 107.3272859 69.5570527 109.05857658 69.52994347 C127.0326394 69.25984305 127.0326394 69.25984305 133.640625 75.05859375 C137.70127573 79.46919689 139.44454205 83.46049465 139.890625 89.37109375 C139.42344854 96.26194657 136.47387482 101.22534393 131.640625 106.05859375 C126.07297675 109.02841321 121.55690254 109.49168839 115.31225586 109.44677734 C114.4040358 109.4520343 113.49581573 109.45729126 112.56007385 109.46270752 C109.57502761 109.47585001 106.59051988 109.46719052 103.60546875 109.45703125 C101.52234292 109.45905346 99.43921778 109.46196612 97.35609436 109.46572876 C92.99766273 109.47014418 88.63941595 109.46374552 84.28100586 109.44970703 C78.70017524 109.43260509 73.11977717 109.44246784 67.53896236 109.46042442 C63.24008434 109.47127425 58.94130858 109.46781057 54.64242744 109.46004105 C52.58477286 109.45804292 50.52710892 109.46048469 48.46946526 109.46747971 C45.59259374 109.47511499 42.71641933 109.46346114 39.83959961 109.44677734 C38.99319916 109.45285004 38.14679871 109.45892273 37.27474976 109.46517944 C31.0722661 109.39868313 26.98630258 108.02676384 22.140625 103.9609375 C18.82337134 100.10981333 16.26267872 95.96555931 13.640625 91.62109375 C13.07883545 90.70239502 12.5170459 89.78369629 11.93823242 88.8371582 C7.31987369 81.25641826 2.81006249 73.61157585 -1.68457031 65.95703125 C-4.91689991 60.46187467 -8.21142789 55.01535981 -11.609375 49.62109375 C-14.90053647 44.39548365 -18.1622462 39.15491307 -21.359375 33.87109375 C-21.73352539 33.25886963 -22.10767578 32.64664551 -22.49316406 32.01586914 C-26.29861443 25.69490675 -28.56011534 20.4734748 -27.359375 13.05859375 C-25.00881179 7.41925969 -21.26088457 3.57489409 -16.359375 0.05859375 C-11.10943366 -1.6913867 -5.20936337 -2.07857049 0 0 Z " fill="#58BCCE" transform="translate(405.359375,29.94140625)"/>
<path d="M0 0 C4.6562381 2.73640859 8.15597666 6.16742207 10.59375 11.04296875 C12.10577347 22.39511329 9.05644763 29.40273256 2.84375 38.66796875 C2.05491988 39.89528592 1.26939542 41.12473353 0.48706055 42.35620117 C-1.07223352 44.80453838 -2.64520028 47.24304166 -4.23095703 49.67431641 C-7.14480615 54.15980046 -9.87353181 58.75079044 -12.59375 63.35546875 C-13.53651013 64.93043658 -14.48052902 66.50465159 -15.42578125 68.078125 C-15.90096191 68.86977051 -16.37614258 69.66141602 -16.86572266 70.47705078 C-17.37409668 71.32380371 -17.8824707 72.17055664 -18.40625 73.04296875 C-18.99067871 74.01733887 -19.57510742 74.99170898 -20.17724609 75.99560547 C-22.04057072 79.09757039 -23.9102374 82.19563611 -25.78125 85.29296875 C-26.63819458 86.72249878 -26.63819458 86.72249878 -27.51245117 88.1809082 C-30.85255902 93.69558327 -34.29957908 99.06120146 -38.40625 104.04296875 C-39.04892822 104.8323584 -39.04892822 104.8323584 -39.70458984 105.63769531 C-44.5462607 109.63606797 -50.65015318 109.34469254 -56.58935547 109.34936523 C-57.94664764 109.36185051 -57.94664764 109.36185051 -59.33135986 109.37458801 C-62.31209662 109.39861374 -65.29261429 109.40745057 -68.2734375 109.4140625 C-70.35320092 109.42303366 -72.4329637 109.43215559 -74.51272583 109.44142151 C-78.86868862 109.45789329 -83.22457471 109.46560847 -87.58056641 109.46850586 C-93.15129988 109.47389125 -98.72130882 109.51158607 -104.29183769 109.55725002 C-108.5865032 109.58704738 -112.88099466 109.59422999 -117.17575455 109.59523201 C-119.22899829 109.59942806 -121.28224284 109.61183755 -123.33538437 109.63274956 C-126.21224501 109.65972239 -129.08743132 109.65482113 -131.96435547 109.64233398 C-132.80513641 109.65716827 -133.64591736 109.67200256 -134.51217651 109.68728638 C-141.82750505 109.59724713 -146.23858324 106.62711795 -151.78125 102.10546875 C-155.46886185 97.42503832 -155.85750181 92.27945047 -155.71875 86.50390625 C-155.05558722 81.28149939 -152.36317862 77.69218308 -148.46875 74.23046875 C-143.22586251 70.48554912 -139.23541582 69.77399576 -132.88476562 70.05737305 C-131.35016005 70.10645238 -129.81553143 70.15481482 -128.28088379 70.20256042 C-127.06753105 70.2449437 -127.06753105 70.2449437 -125.82966614 70.28818321 C-120.60775288 70.45207924 -115.38315297 70.50155048 -110.1593399 70.57561016 C-105.58208792 70.64706981 -101.01151651 70.75565064 -96.4375 70.94458008 C-77.22795042 72.60177063 -77.22795042 72.60177063 -59.52941895 67.06616211 C-55.08870356 62.27665445 -52.65000456 56.92372698 -50.4927063 50.82133484 C-48.64324638 46.09175969 -45.86837628 41.940887 -43.15625 37.66796875 C-42.16462068 36.0210201 -41.17700592 34.37164038 -40.1953125 32.71875 C-39.72641602 31.93322754 -39.25751953 31.14770508 -38.77441406 30.33837891 C-37.47058553 28.15090641 -36.16871614 25.96227893 -34.8671875 23.7734375 C-32.7320395 20.18523307 -30.57104289 16.61335863 -28.40625 13.04296875 C-27.87644531 12.13675781 -27.34664062 11.23054688 -26.80078125 10.296875 C-20.78712941 0.47833888 -11.51894066 -4.58139685 0 0 Z " fill="#58BCCE" transform="translate(217.40625,29.95703125)"/>
<path d="M0 0 C0.93675064 -0.0049649 1.87350128 -0.00992981 2.83863831 -0.01504517 C5.94809699 -0.02969002 9.05750463 -0.03647329 12.16699219 -0.04199219 C14.32452395 -0.04774252 16.48205568 -0.05350027 18.6395874 -0.05926514 C23.16906981 -0.06978228 27.69853444 -0.07562002 32.22802734 -0.07910156 C38.02979274 -0.0845823 43.83132298 -0.10859846 49.63301468 -0.13707352 C54.09229211 -0.15570699 58.55151304 -0.16090592 63.01082611 -0.16243744 C65.14943475 -0.16546379 67.28804239 -0.17349172 69.42661285 -0.18662262 C72.42130847 -0.20369474 75.41543159 -0.20179967 78.41015625 -0.1953125 C79.29246414 -0.20452728 80.17477203 -0.21374207 81.08381653 -0.22323608 C87.54305072 -0.17944896 91.65363963 1.17326259 96.65136719 5.47363281 C100.60794739 10.07182062 102.52901652 13.88453905 102.24511719 20.08300781 C101.41467711 26.21903731 99.10435587 30.57487245 94.75683594 34.93457031 C89.92815083 38.23785381 84.69531295 38.44498064 79.03076172 38.38818359 C78.25935349 38.38847565 77.48794525 38.3887677 76.69316101 38.3890686 C74.16088339 38.38768293 71.62890547 38.37215793 69.09667969 38.35644531 C67.33405722 38.35271247 65.57143266 38.34986678 63.80880737 38.34786987 C59.1826397 38.34025479 54.55659876 38.32062463 49.93048096 38.29846191 C45.20464797 38.27795762 40.47879439 38.26885837 35.75292969 38.25878906 C26.48985335 38.23737667 17.22687083 38.20326647 7.96386719 38.16113281 C7.66138565 38.93625717 7.35890411 39.71138153 7.04725647 40.50999451 C5.93330932 43.2359103 4.60801963 45.61509725 3.08496094 48.13378906 C2.50157959 49.10251953 1.91819824 50.07125 1.31713867 51.06933594 C0.36883179 52.63071289 0.36883179 52.63071289 -0.59863281 54.22363281 C-1.58271118 55.85268555 -1.58271118 55.85268555 -2.58666992 57.51464844 C-3.99464154 59.84496732 -5.40511322 62.17374833 -6.81738281 64.50146484 C-8.70066602 67.60602426 -10.57818337 70.71402646 -12.45399475 73.82310486 C-13.96624018 76.32883798 -15.48060908 78.83328272 -16.99557495 81.33737183 C-17.72194598 82.53833071 -18.4478096 83.73959664 -19.17312622 84.94119263 C-32.20725108 106.5216392 -32.20725108 106.5216392 -38.03613281 109.16113281 C-44.81685282 110.63028881 -50.03576231 110.76135511 -56.03613281 107.16113281 C-60.21965513 103.56135779 -64.32814391 99.54374647 -65.49316406 93.97753906 C-66.28952472 82.40252953 -58.07798214 72.35585811 -52.19287109 63.00830078 C-50.03033076 59.55499133 -47.90998986 56.0758173 -45.78613281 52.59863281 C-45.3244873 51.84388672 -44.8628418 51.08914063 -44.38720703 50.31152344 C-41.39766195 45.41600254 -38.43762115 40.50361386 -35.49487305 35.57983398 C-33.49620027 32.23780675 -31.4884385 28.90128902 -29.47949219 25.56542969 C-28.53127197 23.98591807 -27.58712823 22.40395069 -26.64746094 20.81933594 C-25.35088588 18.6345411 -24.03909447 16.45959304 -22.72363281 14.28613281 C-22.35165771 13.65046387 -21.97968262 13.01479492 -21.59643555 12.35986328 C-16.05922304 3.31003102 -10.47064394 0.01314537 0 0 Z " fill="#58BCCE" transform="translate(443.0361328125,556.8388671875)"/>
<path d="M0 0 C0.94256149 -0.01051392 1.88512299 -0.02102783 2.85624695 -0.03186035 C5.9518085 -0.05812755 9.04528906 -0.04083469 12.14086914 -0.02050781 C14.30506278 -0.02455356 16.46925376 -0.03037999 18.63343811 -0.03790283 C23.16181483 -0.04673166 27.68947971 -0.03394744 32.21777344 -0.00585938 C38.00609307 0.028305 43.7927421 0.00864636 49.58100033 -0.02729416 C54.04822746 -0.0490364 58.51506239 -0.04204681 62.98230171 -0.0265274 C65.11562869 -0.0225406 67.24899192 -0.02738133 69.38227654 -0.04140472 C72.37168734 -0.05674389 75.35844196 -0.03328168 78.34765625 0 C79.21910278 -0.01214539 80.09054932 -0.02429077 80.98840332 -0.0368042 C87.75754105 0.1019491 92.06520095 2.48413649 97.23852539 6.77636719 C99.26318359 9.06787109 99.26318359 9.06787109 100.53930664 11.25292969 C101.03462891 12.07736572 101.52995117 12.90180176 102.0402832 13.7512207 C102.53882813 14.62576904 103.03737305 15.50031738 103.55102539 16.40136719 C104.10242188 17.32941162 104.65381836 18.25745605 105.22192383 19.21362305 C106.36085123 21.13348737 107.49156471 23.05824821 108.61401367 24.98779297 C110.56476684 28.33638069 112.56138668 31.65567848 114.56323242 34.97387695 C116.02006298 37.39119754 117.46753593 39.81395192 118.91430664 42.23730469 C121.45540407 46.48324892 124.02015305 50.71429846 126.59399414 54.94042969 C126.97220306 55.56173264 127.35041199 56.18303558 127.74008179 56.82316589 C129.25294735 59.30796838 130.76597298 61.79266364 132.28259277 64.275177 C134.61844642 68.09871088 136.93486264 71.93330618 139.23852539 75.77636719 C139.76526855 76.63866943 140.29201172 77.50097168 140.8347168 78.3894043 C144.55019674 84.68489558 145.1666106 89.48724851 144.23852539 96.77636719 C142.50834655 102.27222937 138.88932135 105.56960852 134.23852539 108.77636719 C129.32006055 111.03066357 124.42923091 111.84805454 119.19165039 110.08886719 C111.54385714 106.6387349 107.80401122 100.39593906 103.80102539 93.33886719 C102.92770713 91.82747752 102.05260599 90.31711709 101.17602539 88.80761719 C100.70680664 87.999375 100.23758789 87.19113281 99.75415039 86.35839844 C96.99149377 81.65191384 94.14454497 76.9967899 91.30102539 72.33886719 C90.70974854 71.36989502 90.11847168 70.40092285 89.50927734 69.40258789 C88.32788553 67.46779787 87.1460065 65.53330526 85.96362305 63.59912109 C84.29675702 60.87165082 82.63246078 58.14263049 80.96899414 55.41308594 C79.97557699 53.78413551 78.98209134 52.15522686 77.98852539 50.52636719 C77.53485596 49.78201416 77.08118652 49.03766113 76.61376953 48.27075195 C75.98716431 47.24485962 75.98716431 47.24485962 75.34790039 46.19824219 C74.98664063 45.60624023 74.62538086 45.01423828 74.25317383 44.40429688 C73.27934733 42.84186302 72.25976711 41.30822976 71.23852539 39.77636719 C68.70797441 39.4810316 66.41914752 39.38027772 63.88647461 39.4074707 C63.12850082 39.40370422 62.37052704 39.39993774 61.58958435 39.39605713 C59.94010531 39.38961194 58.29058916 39.38996659 56.64110947 39.39624214 C54.02571541 39.40533427 51.41104124 39.3951481 48.79568481 39.37962341 C41.35867495 39.33948625 33.92171926 39.33831305 26.48461914 39.34057617 C21.93693105 39.34062744 17.38962743 39.32137032 12.84204483 39.2912426 C10.27390537 39.28045487 7.70651236 39.29252975 5.13839722 39.30506897 C3.54790526 39.29615701 1.95741927 39.28608001 0.36694336 39.2746582 C-0.33986069 39.2844017 -1.04666473 39.2941452 -1.77488708 39.30418396 C-7.86215743 39.21753469 -13.21383354 37.24287319 -17.60131836 32.99511719 C-17.96354492 32.42792969 -18.32577148 31.86074219 -18.69897461 31.27636719 C-19.07924805 30.70917969 -19.45952148 30.14199219 -19.85131836 29.55761719 C-22.54081689 24.29404925 -22.87429564 17.39835158 -21.14819336 11.78027344 C-16.74185886 3.06466026 -9.32057063 -0.12960013 0 0 Z " fill="#58BCCE" transform="translate(83.761474609375,556.2236328125)"/>
<path d="M0 0 C3.73046875 1.015625 3.73046875 1.015625 6.1796875 4.09375 C6.95022014 5.47098391 7.69466523 6.86301109 8.41796875 8.265625 C8.83530273 9.02286865 9.25263672 9.7801123 9.68261719 10.56030273 C10.58255941 12.19323032 11.4730441 13.83139874 12.35498047 15.47412109 C14.6526845 19.71961257 17.07506915 23.89304672 19.48046875 28.078125 C20.50022534 29.86705907 21.51975181 31.65612433 22.5390625 33.4453125 C25.83828388 39.21869464 29.18667758 44.96278109 32.54296875 50.703125 C37.65002902 59.43950653 42.73373868 68.18898183 47.79296875 76.953125 C48.721698 78.56030396 48.721698 78.56030396 49.66918945 80.19995117 C51.36213149 83.13520266 53.04815021 86.07427432 54.73046875 89.015625 C55.2394873 89.90008301 55.74850586 90.78454102 56.27294922 91.69580078 C56.7320166 92.50388184 57.19108398 93.31196289 57.6640625 94.14453125 C58.0655249 94.84779541 58.4669873 95.55105957 58.88061523 96.27563477 C59.73046875 98.015625 59.73046875 98.015625 59.73046875 100.015625 C19.80046875 100.015625 -20.12953125 100.015625 -61.26953125 100.015625 C-57.98519739 93.44695728 -54.71424877 87.25562813 -50.83203125 81.078125 C-47.32158797 75.47443595 -44.02793473 69.80593336 -40.88793945 63.98608398 C-37.87072707 58.44823166 -34.71789516 52.98686363 -31.58203125 47.515625 C-30.8730317 46.27727106 -30.16404751 45.03890832 -29.45507812 43.80053711 C-27.39538983 40.20432452 -25.33269783 36.60984319 -23.26953125 33.015625 C-22.71442871 32.0477002 -22.15932617 31.07977539 -21.58740234 30.08251953 C-4.33266154 0.02070567 -4.33266154 0.02070567 0 0 Z " fill="#EEEFF1" transform="translate(302.26953125,66.984375)"/>
<path d="M0 0 C3.55303915 1.18434638 3.70549446 1.75722357 5.3828125 4.9453125 C5.82278564 5.76668701 6.26275879 6.58806152 6.71606445 7.43432617 C7.41348755 8.76620972 7.41348755 8.76620972 8.125 10.125 C9.11878829 11.97910214 10.11490075 13.83196034 11.11328125 15.68359375 C11.60521973 16.59737793 12.0971582 17.51116211 12.60400391 18.45263672 C14.73866122 22.34788234 17.0471572 26.1214668 19.36694336 29.90917969 C23.77629776 37.17758082 27.85491355 44.63542974 31.95239258 52.08276367 C35.00413893 57.59171521 38.15930836 62.92726042 41.75 68.10351562 C43.32448267 70.49230106 44.50875691 72.97840526 45.72265625 75.5625 C46.82027196 77.65703272 47.98965679 79.62451918 49.24609375 81.625 C49.65561279 82.28161621 50.06513184 82.93823242 50.48706055 83.61474609 C51.31463844 84.93202357 52.15301356 86.24259296 53.00317383 87.54541016 C55.45038599 91.45829126 56.7908886 94.24103237 56 99 C54.40689612 101.11302295 53.52908694 101.90711389 50.89732838 102.36914349 C50.08154159 102.36637811 49.2657548 102.36361273 48.42524719 102.36076355 C47.4871521 102.36488754 46.54905701 102.36901154 45.58253479 102.3732605 C44.55538864 102.36247467 43.52824249 102.35168884 42.4699707 102.34057617 C41.38688629 102.34101425 40.30380188 102.34145233 39.18789673 102.34190369 C35.60034287 102.33981013 32.01325368 102.31645174 28.42578125 102.29296875 C25.94142411 102.28737483 23.45706366 102.28310377 20.97270203 102.28010559 C15.09721205 102.26981327 9.22189421 102.24615816 3.34647483 102.21605712 C-3.99880751 102.17924214 -11.3440996 102.16312394 -18.68945312 102.14648438 C-31.7930538 102.11429146 -44.89651632 102.06365039 -58 102 C-57.0505254 100.25858832 -56.1009642 98.51722384 -55.15136719 96.77587891 C-54.62258972 95.80615143 -54.09381226 94.83642395 -53.54901123 93.83731079 C-47.3915998 82.55883226 -41.09839995 71.37702078 -34.55078125 60.3203125 C-31.46079291 55.0995024 -28.428761 49.84559708 -25.39575195 44.59155273 C-22.75742688 40.02513213 -20.10524574 35.46727499 -17.4375 30.91796875 C-8.45486341 15.60624551 -8.45486341 15.60624551 0 0 Z " fill="#F0F0F2" transform="translate(487,385)"/>
<path d="M0 0 C3.04596238 2.8222546 5.07612169 5.55479298 7.06640625 9.19140625 C7.6284375 10.20855713 8.19046875 11.22570801 8.76953125 12.27368164 C9.36121094 13.3589917 9.95289063 14.44430176 10.5625 15.5625 C11.82315783 17.84433645 13.08488599 20.12558189 14.34765625 22.40625 C15.27989014 24.09427734 15.27989014 24.09427734 16.23095703 25.81640625 C18.60719591 30.092718 21.04026006 34.33379748 23.5 38.5625 C23.9323999 39.30677246 24.3647998 40.05104492 24.81030273 40.81787109 C27.35913719 45.19753227 29.91849891 49.57103774 32.4765625 53.9453125 C33.69286679 56.02594904 34.90901153 58.10667886 36.125 60.1875 C36.7219165 61.20884033 37.31883301 62.23018066 37.93383789 63.2824707 C41.68244208 69.7081309 45.37957449 76.15889685 49.00024414 82.6574707 C51.83605118 87.74243608 54.78646222 92.75116388 57.78515625 97.7421875 C59 100 59 100 59 102 C44.70962974 102.07004986 30.41928606 102.122769 16.12877941 102.15543652 C9.49358872 102.17111285 2.85851312 102.19238718 -3.77661133 102.22631836 C-10.17620161 102.25884137 -16.57568099 102.27683818 -22.97534752 102.28463173 C-25.42066889 102.29018792 -27.86598398 102.30103734 -30.31125832 102.31719017 C-33.72822968 102.33887029 -37.14473885 102.34197083 -40.56176758 102.34057617 C-41.57956299 102.351362 -42.5973584 102.36214783 -43.64599609 102.3732605 C-44.57567703 102.36913651 -45.50535797 102.36501251 -46.46321106 102.36076355 C-47.27162351 102.36352893 -48.08003595 102.36629431 -48.91294575 102.36914349 C-51.53531519 101.90531721 -52.41721292 101.11105599 -54 99 C-54.64786564 94.13300414 -53.43923302 91.2962498 -50.9921875 87.1328125 C-50.34241943 86.01245605 -49.69265137 84.89209961 -49.02319336 83.73779297 C-48.30735395 82.53339486 -47.59128361 81.32913398 -46.875 80.125 C-46.14016295 78.86804781 -45.40653599 77.61038746 -44.67407227 76.35205078 C-43.17898404 73.78839418 -41.6766969 71.22919272 -40.16748047 68.67382812 C-38.21500016 65.36792519 -36.27824332 62.05312319 -34.34765625 58.734375 C-32.07569824 54.8288524 -29.79804463 50.92676117 -27.515625 47.02734375 C-23.70936084 40.51476126 -19.94894554 33.97603481 -16.1875 27.4375 C-10.8889911 18.23145988 -5.52428351 9.07240056 0 0 Z " fill="#EFF0F2" transform="translate(115,385)"/>
<path d="M0 0 C0.99 0.33 1.98 0.66 3 1 C3.6875 3.0625 3.6875 3.0625 4 5 C3.39671875 5.09152344 2.7934375 5.18304688 2.171875 5.27734375 C-0.53257263 6.17720492 -1.2082314 7.20702019 -2.75 9.5625 C-3.17796875 10.20316406 -3.6059375 10.84382813 -4.046875 11.50390625 C-4.36140625 11.99761719 -4.6759375 12.49132812 -5 13 C-5.33 12.34 -5.66 11.68 -6 11 C-4.78515625 8.3984375 -4.78515625 8.3984375 -3.0625 5.375 C-2.21365234 3.87066406 -2.21365234 3.87066406 -1.34765625 2.3359375 C-0.90292969 1.56507813 -0.45820313 0.79421875 0 0 Z " fill="#C9D0D4" transform="translate(487,385)"/>
<path d="M0 0 C1 3 1 3 0.00390625 5.26171875 C-0.47175781 6.06222656 -0.94742187 6.86273438 -1.4375 7.6875 C-2.14712891 8.89986328 -2.14712891 8.89986328 -2.87109375 10.13671875 C-3.24363281 10.75160156 -3.61617188 11.36648438 -4 12 C-4.66 12 -5.32 12 -6 12 C-4.43358249 7.69235185 -2.31663844 3.93828536 0 0 Z " fill="#3B3F67" transform="translate(447,378)"/>
<path d="M0 0 C0.66 0 1.32 0 2 0 C0.94124926 3.40312738 -0.00902154 6.01353231 -2 9 C-2.66 9 -3.32 9 -4 9 C-2.80100302 5.9168649 -1.52299523 2.93720508 0 0 Z " fill="#3A3A61" transform="translate(144,257)"/>
</svg>